<?xml version="1.0" encoding="UTF-8"?>
<svg version="1.1" viewBox="0 0 1600 1600" width="1280" height="1280" xmlns="http://www.w3.org/2000/svg">
<path transform="translate(681 24.9)" d="m0 0c1.07 0.00351 1.07 0.00351 2.17 0.00709 0.757-0.00145 1.51-0.00291 2.29-0.0044 2.57-0.00369 5.14-1.61e-4 7.71 0.00326 1.85-0.00115 3.7-0.00274 5.54-0.00473 5.1-0.0042 10.2-0.0021 15.3 9.86e-4 5.49 0.00225 11-0.00122 16.5-0.00398 10.8-0.00446 21.5-0.00348 32.3-5.87e-4 8.75 0.00225 17.5 0.00257 26.3 0.00148 1.24-1.53e-4 2.49-3.06e-4 3.77-4.64e-4 2.52-3.2e-4 5.05-6.44e-4 7.57-9.73e-4 23-0.00277 46.1 1.09e-4 69.1 0.00534 21 0.00475 42.1 0.00432 63.1-4.61e-4 23.6-0.00535 47.2-0.00746 70.8-0.00439 2.52 3.19e-4 5.03 6.33e-4 7.55 9.43e-4 1.86 2.31e-4 1.86 2.31e-4 3.75 4.68e-4 8.75 8.65e-4 17.5-5.98e-4 26.2-0.00295 10.7-0.0028 21.3-0.00206 32 0.00328 5.44 0.00264 10.9 0.00364 16.3 3.51e-4 4.97-0.00296 9.94-0.00137 14.9 0.00398 1.81 0.00113 3.61 5.31e-4 5.42-0.00188 2.44-3e-3 4.88 3.87e-5 7.32 0.00472 0.716-0.00234 1.43-0.00468 2.17-0.00709 4.83 0.0188 4.83 0.0188 5.95 1.13 0.0976 1.85 0.124 3.7 0.123 5.56 0.00199 1.21 0.00398 2.43 0.00603 3.68-0.00285 1.36-0.0058 2.73-0.00883 4.09 4.36e-4 1.44 0.00131 2.87 0.00259 4.31 0.00225 3.97-0.00178 7.93-0.00678 11.9-0.0043 4.27-0.00286 8.54-0.0021 12.8 5.25e-4 7.4-0.00262 14.8-0.00824 22.2-0.00811 10.7-0.0107 21.4-0.012 32.1-0.00219 17.4-0.00885 34.7-0.0183 52.1-0.00917 16.9-0.0163 33.7-0.0205 50.6-2.63e-4 1.04-5.25e-4 2.08-7.96e-4 3.15-0.0013 5.21-0.00257 10.4-0.00381 15.6-0.0104 43.3-0.028 86.6-0.0503 130-50.2 0.627-100 1.16-151 1.06-24.4-0.0309-24.4-0.0309-49.4-0.0625v174c49 0.289 49 0.289 98 0.568 9.45 0.059 9.45 0.059 13.9 0.0878 3.1 0.0199 6.2 0.037 9.3 0.0524 3.95 0.0197 7.9 0.0441 11.8 0.072 1.45 0.00946 2.91 0.0172 4.36 0.0232 1.95 0.00822 3.91 0.0231 5.86 0.0383 1.65 0.00968 1.65 0.00968 3.33 0.0196 2.45 0.139 2.45 0.139 3.45 1.14 0.0978 2.55 0.13 5.08 0.12 7.64 8.54e-4 0.809 0.00171 1.62 0.00259 2.45 0.00166 2.73-0.00387 5.47-0.00932 8.2-2.82e-4 1.95-1.24e-4 3.9 4.43e-4 5.85 2.88e-4 5.31-0.00561 10.6-0.0126 15.9-0.00623 5.55-0.00684 11.1-0.00803 16.6-0.00311 10.5-0.0113 21-0.0213 31.5-0.0112 12-0.0167 23.9-0.0217 35.9-0.0105 24.6-0.0281 49.2-0.0503 73.9-35.5 0.669-71 1.15-106 1.07-5.86-0.0126-11.7-0.0167-17.6-0.0225-8.66-0.00934-17.3-0.0278-26-0.0462-0.197 21-0.313 42-0.334 63-0.0117 9.74-0.0496 19.5-0.149 29.2-0.0867 8.49-0.124 17-0.103 25.5 0.00959 4.5-0.00525 8.99-0.0791 13.5-0.0688 4.24-0.0716 8.47-0.0245 12.7 0.00575 1.55-0.0123 3.1-0.0563 4.65-0.127 4.77-0.00458 8.98 1.75 13.5 3.87 3.93 9.02 5.85 14 8 1.89 1.13 3.77 2.28 5.62 3.49l2.62 1.68c0.87 0.562 1.74 1.12 2.64 1.7 1.91 1.22 3.82 2.45 5.73 3.67 1.38 0.885 1.38 0.885 2.79 1.79 3.58 2.29 7.19 4.54 10.8 6.79 4.08 2.54 8.15 5.09 12.2 7.66 8.59 5.45 17.2 10.8 25.9 16.1 8.59 5.2 17.1 10.5 25.6 15.9 7.11 4.55 14.3 9 21.5 13.4 5.75 3.55 11.5 7.14 17.2 10.8 6.64 4.21 13.3 8.37 20 12.5 8.29 5.12 16.5 10.3 24.8 15.5 3.32 2.1 6.64 4.19 9.97 6.27 0.86 0.539 1.72 1.08 2.61 1.63 1.64 1.03 3.29 2.06 4.93 3.08 3.94 2.47 7.67 5 11.2 8.01-6.7 4.93-13.7 9.3-20.8 13.6-5.48 3.32-10.9 6.71-16.3 10.1-7.17 4.55-14.4 9.06-21.6 13.6-1.01 0.63-2.02 1.26-3.06 1.91-2.06 1.29-4.12 2.57-6.17 3.85-5.03 3.14-10.1 6.28-15.1 9.42-2 1.25-4 2.5-6 3.75-0.99 0.619-1.98 1.24-3 1.88l-57 35.6c-0.99 0.619-1.98 1.24-3 1.88-2 1.25-4 2.5-5.99 3.75-5.04 3.15-10.1 6.3-15.1 9.45-12.1 7.59-24.3 15.1-36.4 22.7-0.81 0.503-1.62 1.01-2.46 1.52-0.645 0.259-1.29 0.517-1.95 0.784-2.49 1.16-4.15 2.22-6.05 4.22-1.22 4.32-1.07 8.58-1 13.1-0.00761 1.34-0.0187 2.68-0.0331 4.02-0.029 3.63-0.00892 7.26 0.02 10.9 0.0219 3.8-0.0014 7.6-0.0199 11.4-0.0281 7.19-0.0157 14.4 0.0114 21.6 0.0289 8.19 0.0124 16.4-0.00781 24.6-0.0406 16.8-0.0243 33.7 0.0293 50.5 1.16 0.00497 1.16 0.00497 2.35 0.01 18.9 0.0815 37.8 0.174 56.7 0.277 9.14 0.05 18.3 0.0964 27.4 0.134 7.98 0.0331 16 0.073 23.9 0.121 4.22 0.0251 8.43 0.0469 12.7 0.0606 3.98 0.013 7.96 0.0352 11.9 0.064 1.45 0.00896 2.9 0.0147 4.35 0.0168 25 0.0425 46.4 5.35 64.7 23.3 3.91 3.99 7.09 8.22 9.91 13 0.531 0.9 1.06 1.8 1.61 2.73 5.86 10.8 8.46 22 8.99 34.1 0.0585 1.23 0.0585 1.23 0.118 2.49 0.384 8.73 0.43 17.5 0.417 26.2 6.77e-4 1.71 0.00165 3.42 0.0029 5.13 0.00146 3.56-6.15e-4 7.11-0.00534 10.7-0.00568 4.49-0.00232 8.97 0.00344 13.5 0.0794 72.6 0.0794 72.6-19.1 94.2h-2c-0.245 0.583-0.49 1.17-0.742 1.77-5.86 10.4-22.3 17.1-33.4 20.2-1.62 0.39-3.24 0.745-4.88 1.06-0.794 0.163-1.59 0.327-2.4 0.495-5.17 0.727-10.3 0.879-15.5 1.06-1.78 0.0632-1.78 0.0632-3.6 0.128-13.4 0.435-26.7 0.461-40.1 0.449-3.69-0.00231-7.38 0.00125-11.1 0.00398-7.19 0.0044-14.4 0.00351-21.6 5.87e-4 -5.86-0.00228-11.7-0.00256-17.6-0.00148-0.841 1.53e-4 -1.68 3.06e-4 -2.55 4.64e-4 -1.71 3.2e-4 -3.42 6.44e-4 -5.13 9.73e-4 -16 0.00284-31.9-4.04e-4 -47.9-0.0058-13.6-0.00446-27.2-0.0037-40.8 9.19e-4 -15.9 0.00539-31.8 0.00744-47.7 0.00439-1.71-3.18e-4 -3.41-6.33e-4 -5.12-9.43e-4 -0.838-1.54e-4 -1.68-3.09e-4 -2.54-4.68e-4 -5.83-8.53e-4 -11.7 5.99e-4 -17.5 0.00295-20 0.00713-39.9-0.0106-59.9-0.136-1.04-0.00644-2.09-0.0129-3.16-0.0195-5.19-0.036-10.4-0.0933-15.6-0.198-1.99-0.0381-3.99-0.0606-5.98-0.082-22-0.598-40.9-9.62-56.1-25.5-17.5-20.6-18.5-44.9-18.5-70.6-0.0039-2.36-0.00823-4.72-0.013-7.08-0.00743-4.93-0.0072-9.86-0.00191-14.8 0.00579-6.27-0.0111-12.5-0.0343-18.8-0.0148-4.87-0.0156-9.74-0.0125-14.6-5.09e-4 -2.31-0.00566-4.62-0.0158-6.93-0.102-26.4 3.1-48.9 21.9-69 18.7-18.6 40-22.6 65.6-22.5 1.51 2.83e-4 3.02 1.23e-4 4.53-4.43e-4 4.07-2.85e-4 8.13 0.00557 12.2 0.0126 4.26 0.00628 8.52 0.00684 12.8 0.00803 8.06 0.0031 16.1 0.0113 24.2 0.0213 9.18 0.0112 18.4 0.0167 27.5 0.0217 18.9 0.0104 37.7 0.028 56.6 0.0503 0.29-17.7 0.477-35.3 0.541-53 0.0323-8.21 0.098-16.4 0.244-24.6 0.127-7.16 0.19-14.3 0.177-21.5-0.00437-3.79 0.0223-7.57 0.126-11.4 1.07-15.2 1.07-15.2-3.87-28.9-4.23-3.72-8.89-5.97-14.2-7.88-2.59-0.986-4.78-2.35-7.06-3.92-0.666-0.424-1.33-0.848-2.02-1.28-0.654-0.418-1.31-0.836-1.98-1.27-8.86-5.63-17.8-11.1-26.8-16.6-5.87-3.6-11.7-7.25-17.5-11-4.72-3.01-9.47-5.96-14.2-8.92-7.41-4.62-14.8-9.26-22.2-13.9-7.34-4.65-14.7-9.24-22.1-13.8-14-8.66-28-17.4-41.9-26.2-6.64-4.21-13.3-8.37-20-12.5-1.31-0.811-1.31-0.811-2.65-1.64-4.15-2.57-8.31-5.13-12.5-7.67-1.46-0.896-2.92-1.79-4.38-2.69-0.665-0.402-1.33-0.803-2.02-1.22-3.03-1.87-4.79-3.15-6.8-6.16 0.672-0.411 1.34-0.823 2.04-1.25 12.7-7.79 25.4-15.6 38-23.7 6.99-4.47 14-8.84 21.1-13.2 6.23-3.84 12.4-7.76 18.6-11.7 9.34-5.97 18.8-11.8 28.2-17.6 5.83-3.57 11.6-7.19 17.4-10.9 4.61-2.94 9.26-5.83 13.9-8.73 2.12-1.32 4.24-2.65 6.36-3.97 1.07-0.669 2.14-1.34 3.25-2.03 4.08-2.55 8.16-5.1 12.2-7.65 1.98-1.24 3.97-2.48 5.95-3.72 5.08-3.17 10.2-6.35 15.2-9.53 9.37-5.87 18.7-11.7 28.2-17.5 0.749-0.459 1.5-0.917 2.27-1.39 5.09-3.11 5.09-3.11 7.35-4.24v-162c-48.7 0.0396-48.7 0.0396-97.3 0.0901-9.39 0.00452-9.39 0.00452-13.8 0.00536-3.08 9.35e-4 -6.16 0.0047-9.24 0.0101-3.92 0.00683-7.84 0.00892-11.8 0.0075-1.44 2.98e-4 -2.89 0.0023-4.33 0.00614-1.94 0.00493-3.88 0.00319-5.82 0.00104-1.09 9.22e-4 -2.18 0.00184-3.3 0.00279-2.43-0.123-2.43-0.123-3.43-1.12-0.124-2.3-0.178-4.6-0.205-6.91-0.0099-0.722-0.0198-1.44-0.03-2.19-0.0317-2.4-0.0564-4.79-0.0811-7.19-0.0206-1.66-0.0416-3.32-0.063-4.97-0.0553-4.37-0.105-8.74-0.153-13.1-0.0502-4.46-0.106-8.91-0.161-13.4-0.108-8.75-0.209-17.5-0.307-26.3-1.15 9.22e-4 -2.3 0.00184-3.48 0.00279-27.9 0.0222-55.8 0.0386-83.7 0.049-2.68 0.00102-5.36 0.00206-8.05 0.00312-0.667 2.62e-4 -1.33 5.25e-4 -2.02 7.95e-4 -10.8 0.00436-21.6 0.0122-32.4 0.0214-11.1 0.00934-22.2 0.0148-33.2 0.0169-6.23 0.00131-12.5 0.0044-18.7 0.0116-5.85 0.00676-11.7 0.00889-17.6 0.00738-2.16 2.77e-4 -4.31 0.00228-6.47 0.0061-2.93 0.00493-5.86 0.00379-8.79 0.00105-0.865 0.00291-1.73 0.00583-2.62 0.00883-5.85-0.015-5.85-0.015-6.97-1.13-0.0983-1.5-0.128-3-0.129-4.5-0.00315-0.958-0.0063-1.92-0.00955-2.9 0.00202-1.04 0.00405-2.08 0.00613-3.16-0.00144-1.59-0.00144-1.59-0.0029-3.22-6.82e-4 -2.25 0.00117-4.5 0.00534-6.75 0.00535-3.46 5.56e-5 -6.91-0.00635-10.4 6.61e-4 -2.18 0.00194-4.36 0.00391-6.54-0.00202-1.04-0.00405-2.08-0.00613-3.16 0.00315-0.958 0.0063-1.92 0.00955-2.9 7.96e-4 -0.847 0.00159-1.69 0.00241-2.57 0.127-1.94 0.127-1.94 1.13-2.94 2.88-0.0979 5.74-0.13 8.62-0.12 1.37-0.00128 1.37-0.00128 2.77-0.00259 3.09-0.00166 6.18 0.00387 9.28 0.00932 2.21 2.82e-4 4.41 1.24e-4 6.62-4.43e-4 6.01-2.88e-4 12 0.00561 18 0.0126 6.28 0.00623 12.6 0.00684 18.8 0.00803 10.5 0.00276 21.1 0.00902 31.6 0.0179 10.9 0.00917 21.7 0.0163 32.6 0.0205 0.669 2.63e-4 1.34 5.25e-4 2.03 7.96e-4 3.36 0.0013 6.71 0.00257 10.1 0.00381 27.9 0.0105 55.7 0.0281 83.6 0.0503-0.00222-0.925-0.00444-1.85-0.00673-2.8-0.02-8.7-0.0352-17.4-0.0451-26.1-0.00523-4.47-0.0123-8.94-0.0236-13.4-0.0108-4.31-0.0168-8.62-0.0194-12.9-0.00185-1.65-0.00547-3.3-0.0109-4.95-0.00721-2.3-0.00826-4.6-0.0078-6.9-0.00222-1.31-0.00444-2.62-0.00673-3.98 0.12-2.93 0.12-2.93 1.12-3.93 1.92-0.0966 3.85-0.122 5.78-0.12 1.25-0.00138 2.5-0.00275 3.8-0.00417 1.41 0.00355 2.81 0.00719 4.22 0.0109 1.49 3.06e-4 2.98 1.73e-4 4.48-3.65e-4 4.01-2.27e-4 8.02 0.00559 12 0.0126 3.76 0.00568 7.51 0.00596 11.3 0.00668 11 0.00526 22 0.0192 33 0.0321 24.6 0.0206 49.1 0.0412 74.4 0.0625v-175c-14.4 0.0116-28.7 0.0232-43.5 0.0352-9.06 0.00511-18.1 0.00996-27.2 0.0137-14.4 0.00594-28.8 0.0129-43.2 0.0266-10.5 0.00994-21 0.0164-31.5 0.0186-5.56 0.00131-11.1 0.0044-16.7 0.0116-5.22 0.00676-10.4 0.00889-15.7 0.00738-1.92 2.76e-4 -3.85 0.00228-5.77 0.0061-2.61 0.00493-5.23 0.00379-7.84 0.00105-0.771 0.00291-1.54 0.00583-2.34 0.00883-5.22-0.015-5.22-0.015-6.34-1.13-0.0985-1.85-0.126-3.7-0.126-5.56-0.00261-1.21-0.00522-2.43-0.0079-3.68 0.00216-1.36 0.00442-2.73 0.00676-4.09-0.00115-1.44-0.00274-2.87-0.00473-4.31-0.0042-3.96-0.0021-7.93 9.86e-4 -11.9 0.00225-4.27-0.00122-8.53-0.00398-12.8-0.00446-8.37-0.00348-16.7-5.87e-4 -25.1 0.00225-6.8 0.00257-13.6 0.00148-20.4-1.53e-4 -0.965-3.06e-4 -1.93-4.64e-4 -2.93-3.2e-4 -1.96-6.44e-4 -3.92-9.73e-4 -5.88-0.00286-18.4 4.33e-4 -36.8 0.0058-55.2 0.00447-15.8 0.00369-31.6-9.19e-4 -47.4-0.00535-18.3-0.00746-36.7-0.00439-55 3.19e-4 -1.95 6.33e-4 -3.91 9.43e-4 -5.86 1.54e-4 -0.961 3.09e-4 -1.92 4.68e-4 -2.91 8.65e-4 -6.79-5.98e-4 -13.6-0.00295-20.4-0.0028-8.27-0.00206-16.5 0.00328-24.8 0.00264-4.22 0.00364-8.45 3.51e-4 -12.7-0.00296-3.86-0.00137-7.72 0.00398-11.6 0.00112-1.4 5.32e-4 -2.81-0.00188-4.21-3e-3 -1.89 6.49e-4 -3.79 0.00472-5.68 1.62e-4 -1.06 3.25e-4 -2.11 4.92e-4 -3.2 0.228-4.29 2.28-3.47 6.07-3.49z" fill="#000102"/>
<path transform="translate(1546 141)" d="m0 0c14.8 12.4 24.2 27.9 27.5 47 1.48 20.4-1.29 41.1-14.7 57.4-2.63 3.01-5.44 5.8-8.32 8.57-0.621 0.652-1.24 1.3-1.88 1.98-4.38 4.3-9.49 6.93-14.9 9.73-0.791 0.414-1.58 0.829-2.4 1.26-1.94 1.02-3.88 2.03-5.83 3.04-0.112 67-0.224 134-0.328 201-0.00155 0.992-0.0031 1.98-0.00469 3-0.0336 21.5-0.067 43.1-0.1 64.6-0.0163 10.6-0.0326 21.1-0.0489 31.7-0.00163 1.05-0.00325 2.1-0.00493 3.19-0.0527 34.1-0.109 68.2-0.166 102-0.0593 35-0.115 70.1-0.167 105-0.00732 4.95-0.0147 9.89-0.022 14.8-0.00145 0.973-0.0029 1.95-0.0044 2.95-0.0235 15.7-0.0504 31.4-0.0787 47.1-0.0283 15.8-0.053 31.5-0.0739 47.3-0.0125 9.37-0.0279 18.7-0.0473 28.1-0.0127 6.25-0.0217 12.5-0.0277 18.8-0.00354 3.57-0.0087 7.13-0.0183 10.7-0.0103 3.84-0.0128 7.68-0.0145 11.5-0.00635 1.67-0.00635 1.67-0.0128 3.37-0.0965 7.25-0.0965 7.25 1.12 14.4 2.88 2.01 2.88 2.01 6.5 3.44 6.22 2.81 11.3 6.12 16.5 10.6 0.828 0.641 1.66 1.28 2.51 1.94 12.5 10.3 19.7 27.4 22.5 43.1 1.49 23-3.25 40.6-16.6 59.4-0.477 0.536-0.954 1.07-1.45 1.62h-2c-0.245 0.583-0.49 1.17-0.742 1.77-6.2 11-23.3 17.4-34.9 20.7-20.5 4.94-40.4 1.05-58.3-9.5-3.25-2.11-6.14-4.39-9-7-0.819-0.727-1.64-1.45-2.48-2.2-7.48-7.02-13.3-15-17.1-24.6l-1.46-3.17c-3.42-1.14-6.02-1.12-9.62-1.12-0.676-8.54e-4 -1.35-0.00171-2.05-0.00259-2.27-0.00165-4.54 0.00386-6.81 0.00932-1.63 2.82e-4 -3.25 1.24e-4 -4.88-4.43e-4 -4.42-2.87e-4 -8.84 0.0056-13.3 0.0126-4.62 0.00624-9.23 0.00684-13.8 0.00803-8.74 0.00311-17.5 0.0113-26.2 0.0213-9.95 0.0112-19.9 0.0167-29.9 0.0217-20.5 0.0105-41 0.0281-61.4 0.0503-0.224 2.3-0.224 2.3 2.2 4.43 0.971 0.968 1.95 1.93 2.93 2.89 0.757 0.749 0.757 0.749 1.53 1.51 2.49 2.44 5 4.81 7.72 6.99 2.96 2.47 5.2 5.2 7.62 8.19 1.64 1.69 3.31 3.35 5 5 1.5 1.5 3 3 4.5 4.5 0.732 0.732 1.46 1.46 2.22 2.22l21.3 21.3c-4.03 4.83-8.24 9.38-12.7 13.8-0.613 0.612-1.23 1.22-1.86 1.85-1.93 1.93-3.87 3.85-5.81 5.78-1.32 1.32-2.64 2.63-3.96 3.95-3.22 3.21-6.44 6.41-9.66 9.61-6.32-5.23-12.1-10.9-17.9-16.7-1.09-1.08-2.17-2.16-3.26-3.23-3.54-3.52-7.08-7.04-10.6-10.6-1.22-1.22-2.44-2.43-3.66-3.65-5.07-5.05-10.1-10.1-15.2-15.2-7.25-7.24-14.5-14.5-21.8-21.7-5.12-5.08-10.2-10.2-15.3-15.3-3.05-3.04-6.1-6.08-9.16-9.11-2.87-2.84-5.74-5.7-8.59-8.56-1.05-1.05-2.11-2.1-3.17-3.14-1.44-1.42-2.87-2.85-4.29-4.29-1.2-1.2-1.2-1.2-2.43-2.42-1.58-2.19-1.58-2.19-1.45-4.4 1.16-2.37 2.47-2.86 4.88-3.79v-2c1.36-1.3 1.36-1.3 3.19-2.75 2.5-2.05 4.62-4.09 6.62-6.62 0.722-0.866 1.44-1.73 2.19-2.62h2c0.33-0.99 0.66-1.98 1-3 1.66-1.34 3.33-2.67 5-4 0.804-0.969 1.61-1.94 2.44-2.94 1.9-2.27 3.44-3.88 5.69-5.69 2.46-2.03 4.01-3.85 5.88-6.38h2c0.33-0.99 0.66-1.98 1-3h2c0.33-0.99 0.66-1.98 1-3 1.66-1.34 3.33-2.67 5-4 1.69-1.98 3.35-3.98 5-6 2.69-2.87 2.69-2.87 5-5h2c0.33-0.99 0.66-1.98 1-3 1.94-2.19 1.94-2.19 4-4h2c0.33-0.99 0.66-1.98 1-3 1.66-1.34 3.33-2.67 5-4 1.21-1.47 2.42-2.94 3.61-4.43 2.04-2.31 4.39-4.18 6.76-6.14 2.17-1.92 3.82-4.17 5.62-6.44 0.969-0.804 1.94-1.61 2.94-2.44 3.12-2.61 5.47-5.43 8.06-8.56 1.18-0.928 1.18-0.928 2.38-1.88 3.09-2.5 5.46-5.35 7.98-8.42 1.65-1.71 1.65-1.71 4.65-2.71 4.74 4.61 9.45 9.24 14.2 13.9 1.6 1.58 3.21 3.15 4.82 4.72 2.31 2.25 4.61 4.52 6.9 6.79 0.727 0.701 1.45 1.4 2.2 2.12 0.661 0.66 1.32 1.32 2 2 0.588 0.577 1.18 1.15 1.78 1.75 0.374 0.572 0.747 1.14 1.13 1.73-6.46 25.8-36.2 39.2-55 58h169c2.64-5.28 5.28-10.6 8-16 10.1-13.9 20.1-20.1 36-28v-710c-4.62-2.31-9.24-4.62-14-7-13-9.1-23.4-20.3-29.1-35.3-0.873-2.04-0.873-2.04-3.92-2.68-1.43-0.0886-2.86-0.122-4.29-0.12-0.88-0.00137-1.76-0.00275-2.67-0.00416-0.967 0.00359-1.93 0.00719-2.93 0.0109-1.03-1.49e-4 -2.05-2.98e-4 -3.11-4.51e-4 -3.46 6.97e-4 -6.91 0.00855-10.4 0.0163-2.47 0.00192-4.94 0.00338-7.42 0.00443-5.33 0.00317-10.7 0.00933-16 0.0181-7.71 0.0125-15.4 0.0186-23.1 0.0229-12.5 0.00707-25 0.0179-37.5 0.0317-0.749 8.28e-4 -1.5 0.00166-2.27 0.00251-5.32 0.0059-10.6 0.0119-15.9 0.018-6.08 0.00693-12.2 0.0138-18.2 0.0205-0.748 8.28e-4 -1.5 0.00166-2.27 0.00251-12.5 0.0137-24.9 0.0234-37.4 0.0304-7.69 0.00449-15.4 0.0125-23.1 0.0251-5.89 0.00939-11.8 0.0138-17.7 0.0163-2.42 0.00188-4.84 0.0055-7.26 0.0109-3.29 0.00715-6.58 0.00826-9.87 0.00778-1.46 0.00539-1.46 0.00539-2.94 0.0109-0.874-0.00137-1.75-0.00275-2.65-0.00416-0.76 9.22e-4 -1.52 0.00184-2.3 0.00279-1.73-0.123-1.73-0.123-2.73-1.12-0.0983-1.5-0.128-3-0.129-4.5-0.00315-0.958-0.0063-1.92-0.00955-2.9 0.00202-1.04 0.00405-2.08 0.00613-3.16-9.57e-4 -1.06-0.00191-2.12-0.0029-3.22-6.82e-4 -2.25 0.00117-4.5 0.00534-6.75 0.00535-3.46 5.56e-5 -6.91-0.00635-10.4 6.61e-4 -2.18 0.00194-4.36 0.00391-6.54-0.00202-1.04-0.00405-2.08-0.00613-3.16 0.00315-0.958 0.0063-1.92 0.00955-2.9 7.96e-4 -0.847 0.00159-1.69 0.00241-2.57 0.127-1.94 0.127-1.94 1.13-2.94 1.36-0.101 2.73-0.134 4.09-0.139 0.887-0.00547 1.77-0.0109 2.69-0.0166 0.985-9.78e-4 1.97-0.00196 2.99-0.00296 1.04-0.00494 2.08-0.00988 3.15-0.015 3.51-0.0155 7.01-0.0238 10.5-0.0321 2.5-0.00957 5.01-0.0196 7.51-0.03 5.4-0.0215 10.8-0.0399 16.2-0.0556 7.81-0.0227 15.6-0.0508 23.4-0.0803 12.7-0.0477 25.3-0.091 38-0.131 12.3-0.0393 24.6-0.0808 36.9-0.125 1.14-0.00409 1.14-0.00409 2.3-0.00826 3.8-0.0137 7.61-0.0274 11.4-0.0411 31.6-0.114 63.2-0.221 94.8-0.323 0.525-1.08 1.05-2.17 1.59-3.29 0.709-1.44 1.42-2.89 2.13-4.33 0.344-0.712 0.688-1.42 1.04-2.16 8.23-16.7 23-28.6 40.3-35.1 24.5-8.07 51.1-4.36 71.4 11.9z" fill="#000002"/>
<path transform="translate(735 73.6)" d="m0 0c1.21-0.00597 2.42-0.0119 3.66-0.0181 1.34 0.00856 2.67 0.0174 4.01 0.0265 1.42-0.00131 2.85-0.00394 4.27-0.00777 3.91-0.00671 7.82 0.0053 11.7 0.0203 4.22 0.0129 8.43 0.00857 12.7 0.00629 7.31-0.00157 14.6 0.00785 21.9 0.0247 10.6 0.0244 21.1 0.0322 31.7 0.036 17.1 0.00657 34.3 0.0265 51.4 0.0549 16.7 0.0275 33.3 0.0488 50 0.0615 1.03 7.88e-4 2.05 0.00158 3.11 0.00239 5.15 0.00392 10.3 0.00771 15.4 0.0114 42.7 0.0311 85.4 0.0839 128 0.151 1.66 2.92 2.25 4.99 2.23 8.33 4.97e-4 0.865 9.94e-4 1.73 0.00151 2.62-0.00972 0.945-0.0194 1.89-0.0294 2.86-0.00236 1.01-0.00472 2.01-0.00716 3.05-0.0104 3.39-0.0354 6.78-0.0601 10.2-0.0106 2.46-0.0204 4.93-0.0293 7.39-0.0237 5.94-0.0565 11.9-0.0936 17.8-0.0424 6.87-0.072 13.7-0.101 20.6-0.0843 18.1-0.186 36.3-0.286 54.4-0.309 60.8-0.309 60.8-0.625 123h-349c-1.13-7.88-1.13-7.88-1.14-11.6-0.00507-0.848-0.0101-1.7-0.0154-2.57-4.98e-4 -0.911-9.96e-4 -1.82-0.00151-2.76-0.00438-0.984-0.00876-1.97-0.0133-2.98-0.0133-3.29-0.0196-6.58-0.0257-9.86-0.00791-2.36-0.0162-4.72-0.0248-7.08-0.0239-7.07-0.0391-14.1-0.0521-21.2-0.00496-2.66-0.0104-5.33-0.0158-7.99-0.0237-11.7-0.0439-23.5-0.0557-35.2-0.00293-2.87-0.00589-5.74-0.00891-8.61-7.46e-4 -0.713-0.00149-1.43-0.00226-2.16-0.0127-11.6-0.0459-23.1-0.0875-34.7-0.0424-11.9-0.066-23.8-0.0712-35.7-0.00342-6.67-0.0158-13.3-0.0481-20-0.0299-6.27-0.0364-12.5-0.0246-18.8 2.22e-4 -2.3-0.00818-4.61-0.0257-6.91-0.0225-3.14-0.0145-6.27 0.00148-9.41-0.0139-0.92-0.0278-1.84-0.0421-2.79 0.0106-0.838 0.0211-1.68 0.032-2.54-0.00136-0.724-0.00271-1.45-0.00411-2.19 0.622-1.9 0.622-1.9 2.79-3.64 3.2-1.43 5.33-1.64 8.82-1.64z" fill="#F4C7AB"/>
<path transform="translate(206 850)" d="m0 0c1.44-0.00473 1.44-0.00473 2.9-0.00955 1.04 0.00202 2.08 0.00405 3.16 0.00613 1.06-9.57e-4 2.12-0.00191 3.22-0.0029 2.25-6.82e-4 4.5 0.00117 6.75 0.00534 3.46 0.00535 6.91 5.56e-5 10.4-0.00635 2.18 6.61e-4 4.36 0.00194 6.54 0.00391 1.56-0.00304 1.56-0.00304 3.16-0.00613 0.958 0.00315 1.92 0.0063 2.9 0.00955 0.847 7.96e-4 1.69 0.00159 2.57 0.00241 1.94 0.127 1.94 0.127 2.94 1.13 0.0981 2.77 0.13 5.51 0.12 8.27 8.54e-4 0.882 0.00171 1.76 0.00259 2.67 0.00166 3-0.00389 5.99-0.00932 8.99-2.8e-4 2.15-1.18e-4 4.31 4.51e-4 6.46 2.97e-4 5.95-0.00566 11.9-0.0126 17.8-0.00635 6.4-0.00694 12.8-0.00818 19.2-0.00289 11.1-0.00932 22.2-0.0181 33.3-0.0126 16.1-0.0186 32.1-0.0229 48.2-0.00201 7.48-0.00433 15-0.00674 22.4-2.41e-4 0.749-4.82e-4 1.5-7.3e-4 2.27-0.00582 17.8-0.0148 35.7-0.0242 53.5-4.14e-4 0.781-8.27e-4 1.56-0.00125 2.37-0.00672 12.7-0.0136 25.3-0.0206 38-0.00649 11.9-0.0129 23.7-0.0192 35.6-6.22e-4 1.17-6.22e-4 1.17-0.00126 2.36-0.00945 17.8-0.018 35.6-0.0237 53.4-2.41e-4 0.748-4.82e-4 1.5-7.3e-4 2.27-0.00239 7.47-0.00461 14.9-0.00661 22.4-0.00432 16-0.0114 32.1-0.024 48.1-0.00918 11.7-0.0149 23.4-0.0171 35.1-0.00135 6.34-0.00438 12.7-0.0118 19-0.00673 5.8-0.00889 11.6-0.00736 17.4-2.72e-4 2.1-0.00226 4.21-0.00609 6.31-0.00496 2.85-0.00379 5.7-0.00105 8.55-0.00437 1.23-0.00437 1.23-0.00883 2.49 0.011 4.23 0.147 8.27 1.13 12.4 1.66 1.33 1.66 1.33 3.88 1.94 11.7 4.49 20.9 12 28.7 21.6 0.447 0.535 0.895 1.07 1.36 1.62 4.72 5.99 6.66 11.4 10.1 18.8 72.3 0.33 145 0.66 219 1-3.29-3.94-6.37-7.46-10-11-1.67-1.67-3.33-3.33-5-5-1.44-1.44-2.89-2.89-4.33-4.33-12.2-12.2-24.4-24.4-36.7-36.7 1.1-3.29 1.79-3.89 4.39-6.02 5.43-4.61 10.4-9.63 15.4-14.7 0.95-0.946 1.9-1.89 2.85-2.84 0.902-0.903 1.8-1.81 2.73-2.74 0.813-0.814 1.63-1.63 2.46-2.47 1.89-2 3.55-4.03 5.14-6.27 3.77 1.55 6.07 3.9 8.88 6.81 4.05 4.15 4.05 4.15 8.44 7.94 2.97 2.49 5.21 5.27 7.69 8.25 0.99 0.825 1.98 1.65 3 2.5 3.1 2.59 5.43 5.4 8 8.5 0.784 0.619 1.57 1.24 2.38 1.88 3.03 2.46 5.4 5.22 7.93 8.17 2.95 3.41 6.05 6.44 9.57 9.27 2.37 1.94 4.33 4.01 6.31 6.34 3.79 4.38 7.82 8.46 11.9 12.5 0.69 0.685 1.38 1.37 2.09 2.08 1.29 1.28 2.57 2.55 3.86 3.83 2.32 2.3 4.62 4.6 6.93 6.91 1.14 1.14 2.28 2.28 3.41 3.41l27.6 27.6c-1.54 3.67-3.76 6.01-6.57 8.81-0.467 0.469-0.934 0.938-1.42 1.42-1.56 1.57-3.14 3.13-4.71 4.69-1.12 1.12-2.25 2.25-3.37 3.37-3.05 3.05-6.1 6.09-9.16 9.14-3.19 3.18-6.38 6.37-9.57 9.55-6.04 6.03-12.1 12.1-18.1 18.1-6.88 6.86-13.8 13.7-20.6 20.6-14.1 14.1-28.3 28.2-42.4 42.3-7.42-6.29-7.42-6.29-10.4-9.25-0.56-0.56-1.12-1.12-1.7-1.7-0.576-0.581-1.15-1.16-1.75-1.76-0.612-0.613-1.22-1.23-1.85-1.86-1.93-1.93-3.85-3.87-5.78-5.81-1.32-1.32-2.63-2.64-3.95-3.96-3.21-3.22-6.41-6.44-9.61-9.66 0.932-1.28 1.87-2.56 2.81-3.84 0.521-0.712 1.04-1.42 1.58-2.16 1.46-1.82 2.86-3.19 4.67-4.63 3.04-2.3 3.04-2.3 5.44-5.38 1.89-2.26 3.44-3.88 5.69-5.69 2.94-2.19 2.94-2.19 4.81-5.31h2l1-3h2c0.66-1.32 1.32-2.64 2-4h2l1-3h2c0.232-0.558 0.464-1.12 0.703-1.69 3.38-6.02 9.54-11 14.9-15.3 2.49-1.77 2.49-1.77 3.44-4h-220c-0.33 1.98-0.66 3.96-1 6-4.33 8.71-10.2 16.1-17 23-0.686 0.709-1.37 1.42-2.08 2.15-14.9 14.4-35.3 18.4-55.2 18.1-19.8-0.66-37.1-11-50.5-25-12.5-14.7-18.9-33.1-18.5-52.4 1.66-20.8 10.5-38.8 25.6-53.2 6.96-5.85 15.3-10.4 23.8-13.7 0.00174-1.12 0.00347-2.24 0.00526-3.39 0.0765-49.3 0.154-98.6 0.238-148 0.00127-0.746 0.00254-1.49 0.00385-2.26 0.0276-16.2 0.0555-32.4 0.0836-48.6 0.0138-7.94 0.0275-15.9 0.0412-23.8 0.00205-1.19 0.00205-1.19 0.00413-2.4 0.0442-25.7 0.0852-51.3 0.125-77 0.0404-26.3 0.0841-52.7 0.132-79 0.00674-3.72 0.0134-7.43 0.0201-11.2 0.00132-0.732 0.00263-1.46 0.00399-2.22 0.0211-11.8 0.0388-23.6 0.0552-35.4 0.0165-11.8 0.0368-23.7 0.0605-35.5 0.0128-6.43 0.0239-12.9 0.0308-19.3 0.00628-5.87 0.0171-11.7 0.0316-17.6 0.00446-2.13 0.0072-4.27 0.00813-6.4 0.00149-2.88 0.00902-5.76 0.0182-8.64-0.00153-1.27-0.00153-1.27-0.0031-2.56 0.0336-6.94 0.0336-6.94 5.65-6.95z" fill="#000002"/>
<path transform="translate(223,495)" d="m0 0c5.19 0.25 8.41 3.29 12.3 6.38 5.42 4.18 10.9 8.22 16.6 12.1 6.53 4.44 13 9.02 19.3 13.7 5.07 3.68 10.2 7.31 15.3 10.9 6.63 4.66 13.2 9.39 19.8 14.1 5.05 3.66 10.1 7.27 15.2 10.9 6.63 4.66 13.2 9.39 19.8 14.1 5.05 3.66 10.1 7.27 15.2 10.9 6.63 4.66 13.2 9.39 19.8 14.1 5.05 3.66 10.1 7.27 15.2 10.9 6.62 4.66 13.2 9.38 19.7 14.1 5.99 4.34 12 8.61 18.1 12.8 4.06 2.84 7.89 5.82 11.7 9.04-1.32 3.06-2.53 4.69-5.28 6.56-1 0.692-1 0.692-2.02 1.4-0.724 0.489-1.45 0.977-2.2 1.48-1.55 1.07-3.1 2.14-4.66 3.21-0.802 0.552-1.6 1.1-2.43 1.67-3.85 2.67-7.63 5.42-11.4 8.18-9.31 6.75-18.7 13.4-28.1 20-8.76 6.16-17.5 12.4-26.2 18.7-5.75 4.16-11.5 8.26-17.3 12.3-5.16 3.63-10.3 7.32-15.4 11-6.5 4.71-13 9.36-19.6 14-5.16 3.63-10.3 7.32-15.4 11-5.81 4.21-11.6 8.38-17.5 12.5-5.84 4.11-11.7 8.25-17.4 12.4-0.737 0.532-1.47 1.06-2.23 1.61-3.94 2.85-7.87 5.71-11.8 8.59-0.812 0.594-1.62 1.19-2.46 1.8-1.55 1.14-3.11 2.28-4.65 3.42-1.95 1.42-3.92 2.79-5.92 4.14-0.82 0.568-1.64 1.14-2.48 1.72-4.52 0.498-7.54-2.79-11-5.47-1.62-1.22-3.24-2.45-4.87-3.67-0.799-0.611-1.6-1.22-2.42-1.85-3.07-2.33-6.19-4.57-9.34-6.79-1.13-0.807-2.26-1.61-3.39-2.42-3.92-2.79-7.86-5.56-11.8-8.33-6.71-4.73-13.4-9.52-20-14.3-5.05-3.66-10.1-7.27-15.2-10.9-6.63-4.66-13.2-9.39-19.8-14.1-5.05-3.66-10.1-7.27-15.2-10.9-5.86-4.12-11.7-8.29-17.5-12.5-6.6-4.78-13.2-9.5-19.9-14.2-8.92-6.28-17.8-12.6-26.6-19-13.7-9.92-27.5-19.7-41.5-29.3 1.4-4.19 4.4-5.55 7.94-7.88 1.47-0.988 2.94-1.98 4.41-2.97 0.767-0.517 1.53-1.03 2.32-1.57 3.78-2.59 7.49-5.27 11.2-7.96 1.12-0.814 1.12-0.814 2.27-1.64 1.52-1.11 3.05-2.21 4.57-3.32 10.3-7.45 20.5-14.9 30.9-22.1 5.16-3.63 10.3-7.32 15.4-11 6.5-4.71 13-9.37 19.6-14 5.1-3.59 10.2-7.23 15.2-10.9 7.18-5.21 14.4-10.3 21.7-15.4 6.34-4.43 12.6-8.94 18.9-13.5 5-3.62 10-7.2 15.1-10.8 8.1-5.7 16.1-11.5 24.2-17.3 2.48-1.79 4.96-3.58 7.44-5.37 1.25-0.897 1.25-0.897 2.52-1.81 1.6-1.15 3.21-2.31 4.81-3.46 0.716-0.516 1.43-1.03 2.17-1.56 0.634-0.457 1.27-0.913 1.92-1.38 1.45-1.02 1.45-1.02 2.48-2.1z" fill="#000102"/>
<path transform="translate(735 1373)" d="m0 0c1.48-0.00362 2.96-0.00943 4.44-0.0172 4.05-0.015 8.09 0.00101 12.1 0.0223 4.37 0.0175 8.74 0.0061 13.1-0.00167 8.55-0.0107 17.1 0.00525 25.7 0.0301 9.96 0.028 19.9 0.0293 29.9 0.0294 17.8 0.00119 35.6 0.0261 53.3 0.0647 17.2 0.0374 34.5 0.0586 51.7 0.0615 1.06 1.83e-4 2.13 3.66e-4 3.22 5.54e-4 1.06 1.79e-4 2.12 3.58e-4 3.21 5.42e-4 2.14 3.65e-4 4.27 7.38e-4 6.41 0.00112 1.05 1.86e-4 2.11 3.71e-4 3.19 5.62e-4 16.4 0.00357 32.9 0.022 49.3 0.0419 5.96 0.00702 11.9 0.0118 17.9 0.015 9.45 0.00505 18.9 0.0165 28.3 0.0413 4.32 0.0112 8.63 0.0193 13 0.0189 3.95-3.09e-4 7.9 0.00864 11.9 0.025 1.43 0.00432 2.86 0.00529 4.29 0.00257 17.7-0.0288 17.7-0.0288 25.3 6.28 10.4 13.4 8.16 29.9 8.17 46.1 0.00322 2.14 0.00658 4.27 0.0101 6.41 0.00596 4.46 0.00784 8.91 0.00725 13.4-1.02e-4 5.7 0.0136 11.4 0.0308 17.1 0.0111 4.4 0.0131 8.81 0.0126 13.2 0.00118 2.1 0.00557 4.2 0.0133 6.3 0.00985 2.94 0.0069 5.88 8.95e-4 8.81 0.00562 0.856 0.0112 1.71 0.017 2.59-0.0361 6.99-0.444 14.7-4.88 20.4-0.446 0.603-0.892 1.21-1.35 1.83-7.67 7.28-14.5 7.64-24.9 7.56-1.51 0.00577-3.03 0.0137-4.54 0.0236-4.15 0.0208-8.3 0.0106-12.4-0.00493-4.48-0.0113-8.96 0.00615-13.4 0.0199-8.77 0.0222-17.5 0.0174-26.3 0.00294-7.13-0.0113-14.3-0.0128-21.4-0.00738-1.01 7.66e-4 -2.03 0.00153-3.08 0.00232-2.06 0.0016-4.12 0.00322-6.19 0.00486-19.3 0.0143-38.7-0.00213-58-0.029-16.6-0.0223-33.2-0.0185-49.7 0.00459-19.3 0.0268-38.5 0.0373-57.8 0.0219-2.05-0.00159-4.11-0.00316-6.16-0.00472-1.52-0.00116-1.52-0.00116-3.06-0.00234-7.12-0.00431-14.2 0.00296-21.4 0.0147-8.68 0.014-17.4 0.0102-26-0.0164-4.43-0.0131-8.85-0.0183-13.3-0.00175-4.05 0.0149-8.11 0.00666-12.2-0.0199-1.46-0.00557-2.93-0.00278-4.39 0.00938-8.35 0.064-15.1-0.232-21.8-5.65-7.47-7.84-8.3-16.1-8.26-26.5-0.0035-1.03-0.00701-2.05-0.0106-3.11-0.00876-3.37-0.00299-6.74 0.00378-10.1-0.00135-2.35-0.00329-4.7-0.0058-7.05-0.00294-4.92 0.00132-9.83 0.0107-14.8 0.0114-6.3 0.00482-12.6-0.00714-18.9-0.00723-4.85-0.00493-9.7 2.56e-4 -14.6 0.00133-2.32-2.98e-4 -4.65-0.00496-6.97-0.00508-3.25 0.00267-6.49 0.0138-9.74-0.00405-0.957-0.0081-1.91-0.0123-2.9 0.0578-9.11 2.54-14.9 8.4-21.9 8.57-7.27 16.7-8.16 27.6-8.05z" fill="#59D8B7"/>
<path transform="translate(905,956)" d="m0 0c2.49 1.48 4.72 3.22 7 5 1.66 1.02 3.32 2.02 5 3 1.15 0.728 2.29 1.46 3.44 2.19 3.79 2.38 7.67 4.6 11.6 6.81 10.8 6.17 10.8 6.17 15 9v2c1.18 0.309 1.18 0.309 2.38 0.625 6.48 2.46 12.1 6.36 17.9 10.2 4.69 3.13 9.43 6.17 14.2 9.17 0.833 0.525 1.67 1.05 2.52 1.59 4.93 3.1 9.89 6.14 14.9 9.11 4.83 2.94 9.48 6.16 14.1 9.36 2.31 1.49 4.59 2.82 7 4.12 5.43 2.97 10.6 6.35 15.8 9.73 1.97 1.27 3.96 2.52 5.98 3.71 2.96 1.8 5.08 3.68 7.26 6.38-0.188 2.81-0.188 2.81-1 5-1.45 0.402-1.45 0.402-2.94 0.812-1.52 0.588-1.52 0.588-3.06 1.19-0.33 0.99-0.66 1.98-1 3-1.71 1.18-1.71 1.18-3.94 2.31-8.16 4.33-15.9 9.22-23.7 14.2-4.88 3.15-9.81 6.19-14.8 9.22-4.4 2.7-8.75 5.47-13.1 8.23-6.38 4.04-12.8 8.04-19.2 12-4.62 2.84-9.21 5.72-13.8 8.6-1.26 0.787-2.51 1.57-3.77 2.36-1.52 0.945-3.03 1.9-4.54 2.85-2.16 1.21-2.16 1.21-4.16 1.21v2c-0.918 0.519-1.84 1.04-2.78 1.57-6.49 3.68-12.9 7.39-19.2 11.4-0.931 0.59-1.86 1.18-2.82 1.79-5.62 3.56-5.62 3.56-11.2 7.21-8.16 1.34-13.3-2.67-20-7-1.4-0.88-1.4-0.88-2.83-1.78-2.74-1.72-5.45-3.47-8.17-5.22-6.89-4.42-13.8-8.75-20.8-13-3.82-2.36-7.59-4.77-11.4-7.19-3.1-1.96-6.24-3.87-9.38-5.78-4.8-2.93-9.41-6.02-13.9-9.36-2.1-1.37-4.1-2.45-6.34-3.54-4.11-2.01-7.84-4.39-11.6-6.98-0.653-0.441-1.31-0.881-1.98-1.33-2.73-1.84-5.45-3.7-8.17-5.56-4.84-3.3-9.83-6.1-15-8.86-2.72-1.54-4.98-3.42-7.42-5.37-1.76-0.979-3.53-1.93-5.31-2.88-4.94-2.63-9.34-5.61-13.7-9.12 1.36-4.08 4.01-5.05 7.56-7.06 1.38-0.801 2.75-1.6 4.12-2.41 0.713-0.415 1.43-0.83 2.16-1.26 3.45-2.04 6.83-4.19 10.2-6.34 6.27-3.96 12.6-7.67 19.1-11.2 2.38-1.44 3.91-2.72 5.79-4.69 1.2-0.733 2.44-1.42 3.69-2.06 6.63-3.58 12.9-7.66 19.3-11.7 2.73-1.72 5.47-3.41 8.21-5.1 1.76-1.13 3.43-2.34 5.11-3.59 3.73-2.72 7.74-4.8 11.8-6.97 3.78-2.09 7.38-4.4 11-6.74 3.1-1.99 6.24-3.93 9.38-5.85 5.05-3.1 10.1-6.26 15-9.46 2.16-1.35 4.34-2.62 6.58-3.85 2.95-1.38 2.95-1.38 3.88-3.69 5.09-2.75 8.24-3.64 14-2z" fill="#FBD26E"/>
<path transform="translate(224,555)" d="m0 0c6.37 2.82 11.6 6.52 17.1 10.8 2.91 2.2 5.89 4.21 8.93 6.22 2.2 1.53 4.38 3.07 6.56 4.62 0.607 0.432 1.21 0.865 1.84 1.31 4.11 2.95 8.12 6 12.1 9.13 4.99 3.91 10.2 7.38 15.5 10.8 4.12 2.6 7.92 5.41 11.7 8.46 2.53 1.94 5.14 3.67 7.81 5.41 5.73 3.76 11.2 7.82 16.7 12 5.18 3.92 10.4 7.66 15.8 11.4 2.51 1.74 5.01 3.49 7.5 5.25 0.612 0.425 1.22 0.85 1.86 1.29 2.83 2 4.7 3.54 6.64 6.46-0.082 2.46-0.082 2.46-1 5-2.07 1.88-2.07 1.88-4.69 3.56-0.909 0.598-1.82 1.2-2.75 1.81-0.844 0.536-1.69 1.07-2.56 1.62-3.29 2.17-6.52 4.37-9.66 6.75-4.16 3.13-8.39 6.14-12.7 9.12-7.6 5.35-15.1 10.8-22.6 16.3-0.969 0.71-1.94 1.42-2.94 2.15-0.864 0.636-1.73 1.27-2.62 1.93-6.78 4.76-6.78 4.76-9.51 4.76-0.33 0.99-0.66 1.98-1 3-2.12 1.54-2.12 1.54-4.88 3.19-4.9 3.01-9.55 6.23-14.2 9.64-3.29 2.42-6.62 4.8-9.95 7.17-4.33 3.08-8.64 6.18-12.9 9.31-0.879 0.636-1.76 1.27-2.66 1.93-1.49 1.1-2.97 2.22-4.42 3.37-2.56 2-4.48 3.32-7.73 3.8-4.26-0.532-7.03-2.47-10.4-4.91-0.659-0.456-1.32-0.913-2-1.38-1.95-1.36-3.88-2.73-5.81-4.12-0.967-0.691-1.93-1.38-2.93-2.09-1.76-1.27-3.51-2.56-5.26-3.84-3.25-2.39-6.53-4.73-9.81-7.06-4.27-3.04-8.52-6.1-12.8-9.19-6.01-4.38-12.1-8.69-18.2-12.8v-2c-0.996-0.34-0.996-0.34-2.01-0.688-3.89-1.71-7.28-3.95-10.8-6.31l-2.1-1.37c-1.73-1.16-3.42-2.39-5.09-3.63v-2c-0.719-0.255-1.44-0.51-2.18-0.773-3.01-1.31-5.32-2.88-7.95-4.85-0.966-0.717-1.93-1.43-2.93-2.17-0.973-0.727-1.95-1.45-2.95-2.2-1.77-1.29-3.54-2.59-5.31-3.88-1.34-0.975-1.34-0.975-2.71-1.97-3.49-2.52-6.98-5.03-10.5-7.53-0.6-0.429-1.2-0.858-1.82-1.3-2.54-1.81-5.09-3.59-7.68-5.32v-4c1.94-1.38 1.94-1.38 5-3 1.41-0.902 2.8-1.82 4.19-2.75 1.17-0.781 1.17-0.781 2.36-1.58 3.35-2.28 6.66-4.61 9.96-6.94 3.12-2.16 6.29-4.23 9.48-6.27 2.09-1.44 2.09-1.44 3.97-3.45 2.14-2.11 4.22-3.48 6.79-5.01 4.91-3.05 9.52-6.38 14.1-9.88 5.94-4.51 12-8.84 18.1-13.1 2.85-1.96 5.65-3.97 8.45-6.01 0.878-0.641 1.76-1.28 2.66-1.94 1.55-1.14 3.11-2.27 4.66-3.41 1.87-1.37 3.74-2.73 5.62-4.09 0.583-0.429 1.17-0.858 1.77-1.3 3.17-2.29 6.15-4.06 9.86-5.32v-2c1.62-1.26 1.62-1.26 3.88-2.69 3.53-2.27 7-4.59 10.4-7 1.2-0.841 1.2-0.841 2.43-1.7 2.11-1.51 4.19-3.05 6.26-4.61z" fill="#FBD26E"/>
<path transform="translate(788 599)" d="m0 0c0.998-0.00397 2-0.00795 3.03-0.012 3.36-0.00965 6.71 0.00221 10.1 0.014 2.4-0.00243 4.8-0.00615 7.2-0.0111 5.85-0.00844 11.7-0.00289 17.6 0.00926 6.81 0.0136 13.6 0.012 20.4 0.00987 12.1-0.00319 24.3 0.00848 36.4 0.0281 11.8 0.019 23.6 0.0261 35.4 0.0205 12.8-0.00605 25.7-0.00589 38.5 0.00549 1.37 0.00121 2.74 0.00241 4.1 0.00362 1.01 9.05e-4 1.01 9.05e-4 2.04 0.00183 4.75 0.00388 9.5 0.00348 14.3 0.00159 6.39-0.00234 12.8 0.00618 19.2 0.0221 2.35 0.00426 4.7 0.00508 7.05 0.00231 3.2-0.0032 6.39 0.00581 9.59 0.0181 0.941-0.00378 1.88-0.00756 2.85-0.0115 0.851 0.00583 1.7 0.0117 2.58 0.0177 0.738 8.67e-4 1.48 0.00173 2.24 0.00263 1.81 0.252 1.81 0.252 3.81 2.25 0.247 2.26 0.247 2.26 0.243 5.13 0.00308 1.08 0.00615 2.16 0.00932 3.27-0.0108 1.77-0.0108 1.77-0.0218 3.58-4.58e-4 1.24-9.16e-4 2.48-0.00139 3.75-0.00303 2.65-0.00988 5.31-0.0233 7.96-0.0196 3.91-0.0205 7.82-0.0203 11.7-0.0221 14.9-0.284 29.7-0.696 44.6-0.0475 1.75-0.095 3.51-0.142 5.26-0.114 4.23-0.23 8.46-0.347 12.7-30.9 0.0456-61.7 0.081-92.6 0.102-3.64 0.0025-7.29 0.00509-10.9 0.00773-0.725 5.25e-4 -1.45 0.00105-2.2 0.00159-11.7 0.00871-23.5 0.0245-35.2 0.0429-12.1 0.0187-24.1 0.0298-36.2 0.0339-6.77 0.0025-13.5 0.00852-20.3 0.0233-6.37 0.0135-12.7 0.0178-19.1 0.0148-2.34 5.51e-4 -4.68 0.00455-7.02 0.0122-3.19 0.00992-6.38 0.00757-9.57 0.0021-0.931 0.00583-1.86 0.0117-2.82 0.0177-9.79-0.0455-9.79-0.0455-13-3.26-0.117-2.91-0.168-5.79-0.177-8.69-0.00657-0.912-0.0131-1.82-0.0199-2.76-0.0198-3.03-0.0314-6.06-0.0414-9.1-0.00408-1.03-0.00815-2.06-0.0124-3.13-0.0209-5.46-0.0352-10.9-0.0445-16.4-0.0111-5.66-0.0455-11.3-0.0852-17-0.0261-4.34-0.0345-8.67-0.0381-13-0.00489-2.09-0.0166-4.17-0.035-6.26-0.0242-2.91-0.0235-5.83-0.0165-8.74-0.0128-0.867-0.0256-1.73-0.0388-2.63 0.0505-5.77 0.0505-5.77 1.93-8.05 4.01-1.99 7.89-1.69 12.3-1.65z" fill="#ECEFF5"/>
<path transform="translate(788 123)" d="m0 0c1.44-0.00596 1.44-0.00596 2.9-0.012 3.21-0.00963 6.42 0.0022 9.63 0.014 2.3-0.00243 4.6-0.00615 6.9-0.0111 6.25-0.00942 12.5 2.47e-5 18.8 0.0133 6.54 0.0113 13.1 0.00721 19.6 0.00525 11-0.00143 22 0.0101 33 0.0286 11.3 0.019 22.6 0.0261 33.9 0.0205 13.6-0.00672 27.2-0.00339 40.9 0.0091 5.2 0.00464 10.4 0.00552 15.6 0.00341 6.13-0.00189 12.3 0.00626 18.4 0.0221 2.25 0.00423 4.49 0.0051 6.74 0.00231 3.07-0.00324 6.14 0.0059 9.22 0.0181 0.882-0.00378 1.76-0.00756 2.67-0.0115 6.24 0.0435 11.1 1 17.4 2.27v49c-31.6 0.0441-63.1 0.081-94.7 0.102-3.72 0.0025-7.45 0.00509-11.2 0.00773-1.11 7.87e-4 -1.11 7.87e-4 -2.25 0.00159-12 0.00871-24 0.0245-36 0.0429-12.3 0.0187-24.6 0.0298-37 0.0339-7.61 0.00275-15.2 0.0114-22.8 0.0277-5.82 0.0118-11.6 0.0131-17.5 0.0104-2.4 5.53e-4 -4.79 0.00456-7.19 0.0122-3.26 0.00987-6.51 0.00759-9.77 0.0021-0.959 0.00583-1.92 0.0117-2.91 0.0177-1.3-0.00597-1.3-0.00597-2.63-0.0121-1.13 0.00114-1.13 0.00114-2.28 0.0023-1.84-0.248-1.84-0.248-3.84-2.25-1.99-9.01-1.15-18.8-1-28 0.00725-0.851 0.0145-1.7 0.022-2.58 0.028-2.48 0.0913-4.95 0.166-7.42 0.00564-0.759 0.0113-1.52 0.0171-2.3 0.0884-2.14 0.0884-2.14 0.795-5.7 4.37-3.8 8.97-3.42 14.5-3.37z" fill="#000102"/>
<path transform="translate(796 223)" d="m0 0c1.39 0.0088 2.78 0.0167 4.17 0.0238 3.75 0.0218 7.51 0.0564 11.3 0.0935 3.93 0.037 7.86 0.0632 11.8 0.0907 6.59 0.0479 13.2 0.104 19.8 0.165 7.63 0.0704 15.3 0.13 22.9 0.184 8.12 0.0572 16.2 0.122 24.4 0.189 2.34 0.0189 4.69 0.0363 7.03 0.0535 3.67 0.0273 7.34 0.0596 11 0.096 2 0.0186 4 0.0324 5.99 0.046 1.18 0.0127 2.36 0.0254 3.57 0.0384 1.03 0.00905 2.06 0.0181 3.12 0.0274 2.31 0.144 2.31 0.144 3.31 1.14 0.0932 1.53 0.117 3.07 0.114 4.61-7.55e-5 0.981-1.51e-4 1.96-2.29e-4 2.97-0.00516 1.07-0.0103 2.13-0.0156 3.23-0.00212 1.63-0.00212 1.63-0.00429 3.29-0.00562 3.48-0.0182 6.97-0.0309 10.5-0.00501 2.36-0.00958 4.71-0.0137 7.07-0.0111 5.79-0.0278 11.6-0.0488 17.4-5.86 0.846-11.5 1.14-17.5 1.13-0.912 0.00175-1.82 0.0035-2.76 0.00531-3.01 0.00439-6.02 0.00148-9.03-0.00189-2.13 6.76e-4 -4.27 0.00165-6.4 0.0029-4.49 0.00147-8.98-6.63e-4 -13.5-0.00534-5.63-0.00559-11.3-0.00238-16.9 0.00342-20.8 0.0184-41.6-0.0172-62.5-0.461-1.75-0.037-3.5-0.0709-5.26-0.102-2.38-0.0437-4.77-0.1-7.15-0.162-0.699-0.0112-1.4-0.0223-2.12-0.0338-4.77-0.146-4.77-0.146-7-2.38-0.247-1.85-0.247-1.85-0.243-4.11-0.00308-0.848-0.00615-1.7-0.00932-2.57 0.00719-0.918 0.0144-1.84 0.0218-2.78 4.58e-4 -0.942 9.16e-4 -1.88 0.00139-2.85 0.00302-2 0.0109-3.99 0.0233-5.99 0.0182-3.05 0.0205-6.11 0.0203-9.16 0.00492-1.94 0.0107-3.88 0.0176-5.81 0.00111-0.914 0.00223-1.83 0.00337-2.77 0.00638-0.854 0.0128-1.71 0.0193-2.59 0.00381-0.749 0.00762-1.5 0.0116-2.27 0.136-2.14 0.548-4.04 1.13-6.1 6.83-2.56 13.5-2.23 20.7-2.15z" fill="#000102"/>
<path transform="translate(1e3 223)" d="m0 0c2.33 0.0715 4.67 0.125 7 0.178 1.49 0.0426 2.98 0.0861 4.46 0.131 0.696 0.0147 1.39 0.0294 2.11 0.0445 4.87 0.175 4.87 0.175 7.1 2.4 0.241 2.06 0.241 2.06 0.227 4.63-1.51e-4 0.961-3.02e-4 1.92-4.58e-4 2.91-0.0103 1.04-0.0206 2.08-0.0313 3.15-0.00283 1.06-0.00566 2.13-0.00858 3.22-0.0112 3.4-0.0363 6.81-0.0617 10.2-0.01 2.3-0.0192 4.61-0.0273 6.91-0.0221 5.66-0.0556 11.3-0.0977 17-10 0.71-20 1.18-30.1 1.19-1.17 0.0122-2.33 0.0245-3.53 0.0371-1.69 0.0029-1.69 0.0029-3.41 0.00586-0.998 0.00411-2 0.00822-3.02 0.0125-3.37-0.282-7.41-0.749-9.91-3.24-0.103-1.43-0.138-2.87-0.145-4.3-0.00638-0.914-0.0128-1.83-0.0193-2.77-0.00111-0.995-0.00223-1.99-0.00337-3.01-0.00333-1.01-0.00666-2.03-0.0101-3.08-0.00507-2.15-0.00741-4.3-0.00725-6.45-0.00219-3.3-0.0203-6.6-0.0393-9.9-0.00293-2.09-0.00492-4.17-0.00586-6.26-0.00719-0.993-0.0144-1.99-0.0218-3.01 0.00461-1.38 0.00461-1.38 0.00932-2.78-0.00143-0.81-0.00285-1.62-0.00432-2.45 0.247-1.98 0.247-1.98 2.25-3.98 8.88-1.72 18.3-1.04 27.3-0.758z" fill="#000102"/>
<path transform="translate(1206 1425)" d="m0 0c1.44-0.00473 1.44-0.00473 2.9-0.00955 1.04 0.00202 2.08 0.00405 3.16 0.00613 1.06-9.57e-4 2.12-0.00191 3.22-0.0029 2.25-6.82e-4 4.5 0.00117 6.75 0.00534 3.46 0.00535 6.91 5.56e-5 10.4-0.00635 2.18 6.61e-4 4.36 0.00194 6.54 0.00391 1.56-0.00304 1.56-0.00304 3.16-0.00613 0.958 0.00315 1.92 0.0063 2.9 0.00955 0.847 7.96e-4 1.69 0.00159 2.57 0.00241 1.94 0.127 1.94 0.127 2.94 1.13 0.0931 1.5 0.117 3.01 0.114 4.52-7.55e-5 0.961-1.51e-4 1.92-2.29e-4 2.91-0.00516 1.04-0.0103 2.09-0.0156 3.17-0.00141 1.06-0.00283 2.13-0.00429 3.22-0.00562 3.41-0.0182 6.83-0.0309 10.2-0.00501 2.31-0.00958 4.62-0.0137 6.92-0.0111 5.67-0.0278 11.3-0.0488 17-6.96 0.168-13.9 0.328-20.9 0.482-2.37 0.0535-4.74 0.109-7.11 0.166-3.4 0.0817-6.8 0.157-10.2 0.231-1.07 0.027-2.13 0.0541-3.23 0.0819-0.981 0.0201-1.96 0.0402-2.97 0.0609-1.3 0.03-1.3 0.03-2.63 0.0606-1.98-0.0823-1.98-0.0823-2.98-1.08-0.0983-1.5-0.128-3-0.129-4.5-0.00315-0.958-0.0063-1.92-0.00955-2.9 0.00202-1.04 0.00405-2.08 0.00613-3.16-9.57e-4 -1.06-0.00191-2.12-0.0029-3.22-6.82e-4 -2.25 0.00117-4.5 0.00534-6.75 0.00535-3.46 5.56e-5 -6.91-0.00635-10.4 6.61e-4 -2.18 0.00194-4.36 0.00391-6.54-0.00202-1.04-0.00405-2.08-0.00613-3.16 0.00315-0.958 0.0063-1.92 0.00955-2.9 7.96e-4 -0.847 0.00159-1.69 0.00241-2.57 0.246-3.76 2.38-3.06 5.63-3.07z" fill="#000102"/>
<path transform="translate(1306 1425)" d="m0 0c1.44-0.00473 1.44-0.00473 2.9-0.00955 1.04 0.00202 2.08 0.00405 3.16 0.00613 1.06-9.57e-4 2.12-0.00191 3.22-0.0029 2.25-6.82e-4 4.5 0.00117 6.75 0.00534 3.46 0.00535 6.91 5.56e-5 10.4-0.00635 2.18 6.61e-4 4.36 0.00194 6.54 0.00391 1.56-0.00304 1.56-0.00304 3.16-0.00613 0.958 0.00315 1.92 0.0063 2.9 0.00955 0.847 7.96e-4 1.69 0.00159 2.57 0.00241 1.94 0.127 1.94 0.127 2.94 1.13 0.0931 1.5 0.117 3.01 0.114 4.52-7.55e-5 0.961-1.51e-4 1.92-2.29e-4 2.91-0.00516 1.04-0.0103 2.09-0.0156 3.17-0.00141 1.06-0.00283 2.13-0.00429 3.22-0.00562 3.41-0.0182 6.83-0.0309 10.2-0.00501 2.31-0.00958 4.62-0.0137 6.92-0.0111 5.67-0.0278 11.3-0.0488 17-6.96 0.168-13.9 0.328-20.9 0.482-2.37 0.0535-4.74 0.109-7.11 0.166-3.4 0.0817-6.8 0.157-10.2 0.231-1.07 0.027-2.13 0.0541-3.23 0.0819-0.981 0.0201-1.96 0.0402-2.97 0.0609-1.3 0.03-1.3 0.03-2.63 0.0606-1.98-0.0823-1.98-0.0823-2.98-1.08-0.0983-1.5-0.128-3-0.129-4.5-0.00315-0.958-0.0063-1.92-0.00955-2.9 0.00202-1.04 0.00405-2.08 0.00613-3.16-9.57e-4 -1.06-0.00191-2.12-0.0029-3.22-6.82e-4 -2.25 0.00117-4.5 0.00534-6.75 0.00535-3.46 5.56e-5 -6.91-0.00635-10.4 6.61e-4 -2.18 0.00194-4.36 0.00391-6.54-0.00202-1.04-0.00405-2.08-0.00613-3.16 0.00315-0.958 0.0063-1.92 0.00955-2.9 7.96e-4 -0.847 0.00159-1.69 0.00241-2.57 0.246-3.76 2.38-3.06 5.63-3.07z" fill="#000102"/>
<path transform="translate(481 225)" d="m0 0c1.44-0.00473 1.44-0.00473 2.9-0.00955 1.04 0.00202 2.08 0.00405 3.16 0.00613 1.06-9.57e-4 2.12-0.00191 3.22-0.0029 2.25-6.82e-4 4.5 0.00117 6.75 0.00534 3.46 0.00535 6.91 5.56e-5 10.4-0.00635 2.18 6.61e-4 4.36 0.00194 6.54 0.00391 1.56-0.00304 1.56-0.00304 3.16-0.00613 0.958 0.00315 1.92 0.0063 2.9 0.00955 0.847 7.96e-4 1.69 0.00159 2.57 0.00241 1.94 0.127 1.94 0.127 2.94 1.13 0.0931 1.5 0.117 3.01 0.114 4.52-7.55e-5 0.961-1.51e-4 1.92-2.29e-4 2.91-0.00516 1.04-0.0103 2.09-0.0156 3.17-0.00141 1.06-0.00283 2.13-0.00429 3.22-0.00562 3.41-0.0182 6.83-0.0309 10.2-0.00501 2.31-0.00958 4.62-0.0137 6.92-0.0111 5.67-0.0278 11.3-0.0488 17-6.96 0.168-13.9 0.328-20.9 0.482-2.37 0.0535-4.74 0.109-7.11 0.166-3.4 0.0817-6.8 0.157-10.2 0.231-1.07 0.027-2.13 0.0541-3.23 0.0819-0.981 0.0201-1.96 0.0402-2.97 0.0609-1.3 0.03-1.3 0.03-2.63 0.0606-1.98-0.0823-1.98-0.0823-2.98-1.08-0.0983-1.5-0.128-3-0.129-4.5-0.00315-0.958-0.0063-1.92-0.00955-2.9 0.00202-1.04 0.00405-2.08 0.00613-3.16-9.57e-4 -1.06-0.00191-2.12-0.0029-3.22-6.82e-4 -2.25 0.00117-4.5 0.00534-6.75 0.00535-3.46 5.56e-5 -6.91-0.00635-10.4 6.61e-4 -2.18 0.00194-4.36 0.00391-6.54-0.00202-1.04-0.00405-2.08-0.00613-3.16 0.00315-0.958 0.0063-1.92 0.00955-2.9 7.96e-4 -0.847 0.00159-1.69 0.00241-2.57 0.246-3.76 2.38-3.06 5.63-3.07z" fill="#000102"/>
<path transform="translate(581 225)" d="m0 0c1.44-0.00473 1.44-0.00473 2.9-0.00955 1.04 0.00202 2.08 0.00405 3.16 0.00613 1.06-9.57e-4 2.12-0.00191 3.22-0.0029 2.25-6.82e-4 4.5 0.00117 6.75 0.00534 3.46 0.00535 6.91 5.56e-5 10.4-0.00635 2.18 6.61e-4 4.36 0.00194 6.54 0.00391 1.56-0.00304 1.56-0.00304 3.16-0.00613 0.958 0.00315 1.92 0.0063 2.9 0.00955 0.847 7.96e-4 1.69 0.00159 2.57 0.00241 1.94 0.127 1.94 0.127 2.94 1.13 0.0931 1.5 0.117 3.01 0.114 4.52-7.55e-5 0.961-1.51e-4 1.92-2.29e-4 2.91-0.00516 1.04-0.0103 2.09-0.0156 3.17-0.00141 1.06-0.00283 2.13-0.00429 3.22-0.00562 3.41-0.0182 6.83-0.0309 10.2-0.00501 2.31-0.00958 4.62-0.0137 6.92-0.0111 5.67-0.0278 11.3-0.0488 17-6.96 0.168-13.9 0.328-20.9 0.482-2.37 0.0535-4.74 0.109-7.11 0.166-3.4 0.0817-6.8 0.157-10.2 0.231-1.07 0.027-2.13 0.0541-3.23 0.0819-0.981 0.0201-1.96 0.0402-2.97 0.0609-1.3 0.03-1.3 0.03-2.63 0.0606-1.98-0.0823-1.98-0.0823-2.98-1.08-0.0983-1.5-0.128-3-0.129-4.5-0.00315-0.958-0.0063-1.92-0.00955-2.9 0.00202-1.04 0.00405-2.08 0.00613-3.16-9.57e-4 -1.06-0.00191-2.12-0.0029-3.22-6.82e-4 -2.25 0.00117-4.5 0.00534-6.75 0.00535-3.46 5.56e-5 -6.91-0.00635-10.4 6.61e-4 -2.18 0.00194-4.36 0.00391-6.54-0.00202-1.04-0.00405-2.08-0.00613-3.16 0.00315-0.958 0.0063-1.92 0.00955-2.9 7.96e-4 -0.847 0.00159-1.69 0.00241-2.57 0.246-3.76 2.38-3.06 5.63-3.07z" fill="#000102"/>
<path transform="translate(1406 1425)" d="m0 0c1.44-0.00473 1.44-0.00473 2.9-0.00955 1.04 0.00202 2.08 0.00405 3.16 0.00613 1.06-9.57e-4 2.12-0.00191 3.22-0.0029 2.25-6.82e-4 4.5 0.00117 6.75 0.00534 3.46 0.00535 6.91 5.56e-5 10.4-0.00635 2.18 6.61e-4 4.36 0.00194 6.54 0.00391 1.56-0.00304 1.56-0.00304 3.16-0.00613 0.958 0.00315 1.92 0.0063 2.9 0.00955 0.847 7.96e-4 1.69 0.00159 2.57 0.00241 1.94 0.127 1.94 0.127 2.94 1.13 0.0931 1.5 0.117 3.01 0.114 4.52-7.55e-5 0.961-1.51e-4 1.92-2.29e-4 2.91-0.00516 1.04-0.0103 2.09-0.0156 3.17-0.00141 1.06-0.00283 2.13-0.00429 3.22-0.00562 3.41-0.0182 6.83-0.0309 10.2-0.00501 2.31-0.00958 4.62-0.0137 6.92-0.0111 5.67-0.0278 11.3-0.0488 17-6.96 0.168-13.9 0.328-20.9 0.482-2.37 0.0535-4.74 0.109-7.11 0.166-3.4 0.0817-6.8 0.157-10.2 0.231-1.07 0.027-2.13 0.0541-3.23 0.0819-0.981 0.0201-1.96 0.0402-2.97 0.0609-1.3 0.03-1.3 0.03-2.63 0.0606-1.98-0.0823-1.98-0.0823-2.98-1.08-0.0983-1.5-0.128-3-0.129-4.5-0.00315-0.958-0.0063-1.92-0.00955-2.9 0.00202-1.04 0.00405-2.08 0.00613-3.16-9.57e-4 -1.06-0.00191-2.12-0.0029-3.22-6.82e-4 -2.25 0.00117-4.5 0.00534-6.75 0.00535-3.46 5.56e-5 -6.91-0.00635-10.4 6.61e-4 -2.18 0.00194-4.36 0.00391-6.54-0.00202-1.04-0.00405-2.08-0.00613-3.16 0.00315-0.958 0.0063-1.92 0.00955-2.9 7.96e-4 -0.847 0.00159-1.69 0.00241-2.57 0.246-3.76 2.38-3.06 5.63-3.07z" fill="#000102"/>
<path transform="translate(381 225)" d="m0 0c1.44-0.00473 1.44-0.00473 2.9-0.00955 1.04 0.00202 2.08 0.00405 3.16 0.00613 1.06-9.57e-4 2.12-0.00191 3.22-0.0029 2.25-6.82e-4 4.5 0.00117 6.75 0.00534 3.46 0.00535 6.91 5.56e-5 10.4-0.00635 2.18 6.61e-4 4.36 0.00194 6.54 0.00391 1.56-0.00304 1.56-0.00304 3.16-0.00613 0.958 0.00315 1.92 0.0063 2.9 0.00955 0.847 7.96e-4 1.69 0.00159 2.57 0.00241 1.94 0.127 1.94 0.127 2.94 1.13 0.0931 1.5 0.117 3.01 0.114 4.52-7.55e-5 0.961-1.51e-4 1.92-2.29e-4 2.91-0.00516 1.04-0.0103 2.09-0.0156 3.17-0.00141 1.06-0.00283 2.13-0.00429 3.22-0.00562 3.41-0.0182 6.83-0.0309 10.2-0.00501 2.31-0.00958 4.62-0.0137 6.92-0.0111 5.67-0.0278 11.3-0.0488 17-6.16 0.168-12.3 0.329-18.5 0.482-2.09 0.0533-4.19 0.109-6.28 0.166-3.01 0.0823-6.03 0.157-9.04 0.231-1.4 0.0406-1.4 0.0406-2.82 0.0819-4.6 0.105-8.86 0.0132-13.4-0.961-0.0253-6.82-0.0428-13.6-0.0549-20.5-0.00504-2.32-0.0119-4.64-0.0205-6.96-0.0121-3.33-0.0178-6.66-0.0222-9.99-0.00516-1.04-0.0103-2.09-0.0156-3.17-7.55e-5 -0.961-1.51e-4 -1.92-2.29e-4 -2.91-0.00222-0.85-0.00444-1.7-0.00673-2.58 0.233-3.76 2.37-3.07 5.62-3.07z" fill="#000102"/>
<path transform="translate(233 1425)" d="m0 0c7.41 4.12 13 8.75 15.7 17 1.66 6.49 2.69 12-0.547 18.1-4.14 6.4-9.52 11.7-16.9 14.1-9.89 0.762-17.5-0.516-25.5-6.55-5.17-4.88-6.51-10.9-6.79-17.8 0.11-7.39 3.02-14.4 8.25-19.7 2.55-1.66 5.19-2.85 8-4 0.784-0.412 1.57-0.825 2.38-1.25 5.01-1.43 10.4-1.37 15.4 0z" fill="#F4C7AB"/>
<path transform="translate(1512,177)" d="m0 0c7.22 4.58 10.6 11.3 12.6 19.5 0.886 6.03-0.268 10.1-3.22 15.4-4.14 5.33-8.82 10-15.4 12.1-9.33 0.854-16.5-0.217-24-6-5.95-5.95-7.47-11.8-8.03-20 0.0685-6.58 2.98-11.9 7.03-17 9.14-7.27 20.4-9.98 31-4z" fill="#F4C7AB"/>
<path transform="translate(1516,1030)" d="m0 0c2.12 2.25 2.12 2.25 4 5 0.374 0.53 0.748 1.06 1.13 1.61 3.87 6.34 3.8 13.2 2.87 20.4-2.19 6.95-6.78 11.4-13 15-6.5 3.12-13.9 3.2-20.8 1.16-6.04-2.75-10.4-6.69-14.2-12.2-1.98-5.95-3.32-13.9-0.812-19.9 0.598-1.03 1.2-2.06 1.81-3.12 0.28-0.593 0.559-1.19 0.848-1.8 2.67-5.41 6.43-8.75 12.1-11 10-2.87 17.8-1.45 26.1 4.75z" fill="#F4C7AB"/>
</svg>
